<svg width="216" height="216" xmlns="http://www.w3.org/2000/svg">
 <g>
  <title>Layer 1</title>
  <g id="svg_9">
   <g id="svg_8" transform="matrix(1.83486 0 0 1.83486 0 0)">
    <title>Layer 1</title>
    <path fill="#b3dec1" stroke-width="15" stroke="#b3dec1" d="m100.09999,70.34513c-7.127,7.522 -13.235,14.958 -18.324,22.308c-5.09,7.351 -11.825,10.172 -20.204,8.462c-8.379,-1.709 -17.972,-3.29 -28.778,-4.744c-10.807,-1.453 -16.014,-8.034 -15.622,-19.744c0.391,-11.71 0.743,-23.12 1.057,-34.231c0.313,-11.112 5.168,-18.847 14.565,-23.206c9.397,-4.359 18.324,-5.257 26.781,-2.693c8.458,2.565 16.288,5.898 23.492,10.001c7.205,4.102 13.626,10.555 19.265,19.359c5.638,8.804 4.894,16.966 -2.232,24.488z" id="svg_5"/>
   </g>
  </g>
 </g>

</svg>